<?xml version="1.0" encoding="utf-8"?>
<svg width="140" height="29" viewBox="0 0 140 29" fill="none" xmlns="http://www.w3.org/2000/svg">
  <path d="M 53.682 4.47 C 53.219 2.722 51.86 1.344 50.138 0.874 C 46.991 0 34.403 0 34.403 0 C 34.403 0 21.814 0 18.667 0.84 C 16.978 1.311 15.586 2.722 15.123 4.47 C 14.295 7.663 14.295 14.285 14.295 14.285 C 14.295 14.285 14.295 20.94 15.123 24.099 C 15.586 25.847 16.945 27.225 18.667 27.695 C 21.847 28.569 34.403 28.569 34.403 28.569 C 34.403 28.569 46.991 28.569 50.138 27.729 C 51.86 27.258 53.219 25.88 53.682 24.133 C 54.511 20.94 54.511 14.318 54.511 14.318 C 54.511 14.318 54.544 7.663 53.682 4.47 Z" fill="#FF0000"/>
  <path d="M 30.394 20.402 L 40.862 14.285 L 30.394 8.167 L 30.394 20.402 Z" fill="white"/>
  <path d="M 72.997 23.21 C 72.387 22.798 71.955 22.154 71.701 21.251 C 71.447 20.375 71.32 19.189 71.32 17.746 L 71.32 15.761 C 71.32 14.292 71.472 13.106 71.752 12.204 C 72.057 11.302 72.514 10.658 73.124 10.245 C 73.759 9.833 74.572 9.626 75.588 9.626 C 76.579 9.626 77.392 9.833 78.001 10.245 C 78.611 10.658 79.043 11.328 79.322 12.204 C 79.602 13.08 79.754 14.266 79.754 15.761 L 79.754 17.746 C 79.754 19.215 79.627 20.375 79.348 21.277 C 79.068 22.154 78.636 22.824 78.027 23.236 C 77.417 23.649 76.579 23.855 75.537 23.855 C 74.47 23.829 73.606 23.623 72.997 23.21 Z M 76.426 21.045 C 76.604 20.607 76.68 19.86 76.68 18.854 L 76.68 14.575 C 76.68 13.596 76.604 12.874 76.426 12.41 C 76.248 11.946 75.969 11.74 75.537 11.74 C 75.131 11.74 74.826 11.972 74.673 12.41 C 74.495 12.874 74.419 13.596 74.419 14.575 L 74.419 18.854 C 74.419 19.86 74.495 20.607 74.673 21.045 C 74.826 21.483 75.131 21.715 75.562 21.715 C 75.969 21.715 76.248 21.509 76.426 21.045 Z" fill="white"/>
  <path d="M 119.894 17.771 L 119.894 18.467 C 119.894 19.344 119.919 20.014 119.97 20.452 C 120.021 20.89 120.122 21.225 120.3 21.406 C 120.453 21.612 120.707 21.715 121.062 21.715 C 121.52 21.715 121.824 21.535 122.002 21.174 C 122.18 20.813 122.256 20.22 122.282 19.37 L 124.898 19.524 C 124.924 19.653 124.924 19.808 124.924 20.014 C 124.924 21.277 124.593 22.231 123.908 22.849 C 123.222 23.468 122.256 23.777 121.011 23.777 C 119.513 23.777 118.471 23.287 117.861 22.334 C 117.252 21.38 116.947 19.911 116.947 17.9 L 116.947 15.503 C 116.947 13.441 117.252 11.946 117.887 10.992 C 118.522 10.039 119.589 9.575 121.088 9.575 C 122.129 9.575 122.942 9.781 123.501 10.168 C 124.06 10.554 124.441 11.173 124.67 11.972 C 124.898 12.797 125 13.931 125 15.374 L 125 17.72 L 119.894 17.72 L 119.894 17.771 Z M 120.275 11.998 C 120.122 12.204 120.021 12.513 119.97 12.951 C 119.919 13.39 119.894 14.06 119.894 14.962 L 119.894 15.941 L 122.129 15.941 L 122.129 14.962 C 122.129 14.086 122.104 13.415 122.053 12.951 C 122.002 12.487 121.875 12.178 121.723 11.998 C 121.57 11.817 121.316 11.714 121.011 11.714 C 120.656 11.688 120.427 11.791 120.275 11.998 Z" fill="white"/>
  <path d="M 65.578 17.514 L 62.123 4.806 L 65.146 4.806 L 66.366 10.554 C 66.671 11.972 66.899 13.183 67.052 14.189 L 67.128 14.189 C 67.23 13.467 67.458 12.281 67.814 10.58 L 69.084 4.806 L 72.107 4.806 L 68.601 17.514 L 68.601 23.597 L 65.604 23.597 L 65.604 17.514 L 65.578 17.514 Z" fill="white"/>
  <path d="M 89.586 9.884 L 89.586 23.623 L 87.198 23.623 L 86.944 21.947 L 86.867 21.947 C 86.232 23.21 85.241 23.855 83.946 23.855 C 83.057 23.855 82.396 23.545 81.964 22.953 C 81.532 22.36 81.329 21.432 81.329 20.143 L 81.329 9.884 L 84.378 9.884 L 84.378 19.963 C 84.378 20.581 84.454 21.019 84.581 21.277 C 84.708 21.535 84.937 21.664 85.241 21.664 C 85.496 21.664 85.75 21.587 86.004 21.406 C 86.258 21.251 86.436 21.045 86.537 20.787 L 86.537 9.884 L 89.586 9.884 Z" fill="white"/>
  <path d="M 105.21 9.884 L 105.21 23.623 L 102.822 23.623 L 102.568 21.947 L 102.491 21.947 C 101.856 23.21 100.865 23.855 99.57 23.855 C 98.681 23.855 98.02 23.545 97.588 22.953 C 97.156 22.36 96.953 21.432 96.953 20.143 L 96.953 9.884 L 100.002 9.884 L 100.002 19.963 C 100.002 20.581 100.078 21.019 100.205 21.277 C 100.332 21.535 100.561 21.664 100.865 21.664 C 101.119 21.664 101.373 21.587 101.628 21.406 C 101.882 21.251 102.059 21.045 102.161 20.787 L 102.161 9.884 L 105.21 9.884 Z" fill="white"/>
  <path d="M 97.868 7.306 L 94.845 7.306 L 94.845 23.597 L 91.872 23.597 L 91.872 7.306 L 88.849 7.306 L 88.849 4.806 L 97.868 4.806 L 97.868 7.306 Z" fill="white"/>
  <path d="M 115.295 12.075 C 115.117 11.199 114.813 10.58 114.406 10.193 C 114 9.807 113.415 9.601 112.704 9.601 C 112.145 9.601 111.612 9.755 111.129 10.09 C 110.646 10.4 110.265 10.838 110.011 11.353 L 109.986 11.353 L 109.986 4.11 L 107.039 4.11 L 107.039 23.597 L 109.554 23.597 L 109.859 22.308 L 109.935 22.308 C 110.164 22.772 110.519 23.133 111.002 23.416 C 111.485 23.674 111.993 23.829 112.577 23.829 C 113.619 23.829 114.355 23.339 114.838 22.385 C 115.321 21.432 115.575 19.911 115.575 17.875 L 115.575 15.71 C 115.549 14.137 115.473 12.926 115.295 12.075 Z M 112.501 17.668 C 112.501 18.674 112.45 19.447 112.374 20.014 C 112.298 20.581 112.145 20.994 111.967 21.226 C 111.764 21.457 111.51 21.586 111.205 21.586 C 110.951 21.586 110.722 21.535 110.519 21.406 C 110.316 21.277 110.138 21.097 110.011 20.865 L 110.011 13.08 C 110.113 12.72 110.291 12.41 110.545 12.152 C 110.799 11.92 111.078 11.792 111.358 11.792 C 111.662 11.792 111.916 11.92 112.069 12.152 C 112.247 12.41 112.348 12.823 112.425 13.39 C 112.501 13.983 112.526 14.807 112.526 15.864 L 112.526 17.668 L 112.501 17.668 Z" fill="white"/>
</svg>